<?xml version="1.0" encoding="utf-8" standalone="no"?>
<!DOCTYPE svg PUBLIC "-//W3C//DTD SVG 1.1//EN"
  "http://www.w3.org/Graphics/SVG/1.1/DTD/svg11.dtd">
<!-- Created with matplotlib (http://matplotlib.org/) -->
<svg height="345pt" version="1.1" viewBox="0 0 460 345" width="460pt" xmlns="http://www.w3.org/2000/svg" xmlns:xlink="http://www.w3.org/1999/xlink">
 <defs>
  <style type="text/css">
*{stroke-linecap:butt;stroke-linejoin:round;}
  </style>
 </defs>
 <g id="figure_1">
  <g id="patch_1">
   <path d="M 0 345.6 
L 460.8 345.6 
L 460.8 0 
L 0 0 
z
" style="fill:#ffffff;"/>
  </g>
  <g id="axes_1">
   <g id="patch_2">
    <path d="M 57.6 307.584 
L 414.72 307.584 
L 414.72 41.472 
L 57.6 41.472 
z
" style="fill:#ffffff;"/>
   </g>
   <g id="matplotlib.axis_1">
    <g id="xtick_1">
     <g id="line2d_1">
      <defs>
       <path d="M 0 0 
L 0 3.5 
" id="mbe499ba0c5" style="stroke:#000000;stroke-width:0.8;"/>
      </defs>
      <g>
       <use style="stroke:#000000;stroke-width:0.8;" x="73.832727" xlink:href="#mbe499ba0c5" y="307.584"/>
      </g>
     </g>
     <g id="text_1">
      <!-- 0 -->
      <defs>
       <path d="M 31.78125 66.40625 
Q 24.171875 66.40625 20.328125 58.90625 
Q 16.5 51.421875 16.5 36.375 
Q 16.5 21.390625 20.328125 13.890625 
Q 24.171875 6.390625 31.78125 6.390625 
Q 39.453125 6.390625 43.28125 13.890625 
Q 47.125 21.390625 47.125 36.375 
Q 47.125 51.421875 43.28125 58.90625 
Q 39.453125 66.40625 31.78125 66.40625 
z
M 31.78125 74.21875 
Q 44.046875 74.21875 50.515625 64.515625 
Q 56.984375 54.828125 56.984375 36.375 
Q 56.984375 17.96875 50.515625 8.265625 
Q 44.046875 -1.421875 31.78125 -1.421875 
Q 19.53125 -1.421875 13.0625 8.265625 
Q 6.59375 17.96875 6.59375 36.375 
Q 6.59375 54.828125 13.0625 64.515625 
Q 19.53125 74.21875 31.78125 74.21875 
z
" id="DejaVuSans-30"/>
      </defs>
      <g transform="translate(70.651477 322.182437)scale(0.1 -0.1)">
       <use xlink:href="#DejaVuSans-30"/>
      </g>
     </g>
    </g>
    <g id="xtick_2">
     <g id="line2d_2">
      <g>
       <use style="stroke:#000000;stroke-width:0.8;" x="138.828632" xlink:href="#mbe499ba0c5" y="307.584"/>
      </g>
     </g>
     <g id="text_2">
      <!-- 200 -->
      <defs>
       <path d="M 19.1875 8.296875 
L 53.609375 8.296875 
L 53.609375 0 
L 7.328125 0 
L 7.328125 8.296875 
Q 12.9375 14.109375 22.625 23.890625 
Q 32.328125 33.6875 34.8125 36.53125 
Q 39.546875 41.84375 41.421875 45.53125 
Q 43.3125 49.21875 43.3125 52.78125 
Q 43.3125 58.59375 39.234375 62.25 
Q 35.15625 65.921875 28.609375 65.921875 
Q 23.96875 65.921875 18.8125 64.3125 
Q 13.671875 62.703125 7.8125 59.421875 
L 7.8125 69.390625 
Q 13.765625 71.78125 18.9375 73 
Q 24.125 74.21875 28.421875 74.21875 
Q 39.75 74.21875 46.484375 68.546875 
Q 53.21875 62.890625 53.21875 53.421875 
Q 53.21875 48.921875 51.53125 44.890625 
Q 49.859375 40.875 45.40625 35.40625 
Q 44.1875 33.984375 37.640625 27.21875 
Q 31.109375 20.453125 19.1875 8.296875 
z
" id="DejaVuSans-32"/>
      </defs>
      <g transform="translate(129.284882 322.182437)scale(0.1 -0.1)">
       <use xlink:href="#DejaVuSans-32"/>
       <use x="63.623047" xlink:href="#DejaVuSans-30"/>
       <use x="127.246094" xlink:href="#DejaVuSans-30"/>
      </g>
     </g>
    </g>
    <g id="xtick_3">
     <g id="line2d_3">
      <g>
       <use style="stroke:#000000;stroke-width:0.8;" x="203.824537" xlink:href="#mbe499ba0c5" y="307.584"/>
      </g>
     </g>
     <g id="text_3">
      <!-- 400 -->
      <defs>
       <path d="M 37.796875 64.3125 
L 12.890625 25.390625 
L 37.796875 25.390625 
z
M 35.203125 72.90625 
L 47.609375 72.90625 
L 47.609375 25.390625 
L 58.015625 25.390625 
L 58.015625 17.1875 
L 47.609375 17.1875 
L 47.609375 0 
L 37.796875 0 
L 37.796875 17.1875 
L 4.890625 17.1875 
L 4.890625 26.703125 
z
" id="DejaVuSans-34"/>
      </defs>
      <g transform="translate(194.280787 322.182437)scale(0.1 -0.1)">
       <use xlink:href="#DejaVuSans-34"/>
       <use x="63.623047" xlink:href="#DejaVuSans-30"/>
       <use x="127.246094" xlink:href="#DejaVuSans-30"/>
      </g>
     </g>
    </g>
    <g id="xtick_4">
     <g id="line2d_4">
      <g>
       <use style="stroke:#000000;stroke-width:0.8;" x="268.820442" xlink:href="#mbe499ba0c5" y="307.584"/>
      </g>
     </g>
     <g id="text_4">
      <!-- 600 -->
      <defs>
       <path d="M 33.015625 40.375 
Q 26.375 40.375 22.484375 35.828125 
Q 18.609375 31.296875 18.609375 23.390625 
Q 18.609375 15.53125 22.484375 10.953125 
Q 26.375 6.390625 33.015625 6.390625 
Q 39.65625 6.390625 43.53125 10.953125 
Q 47.40625 15.53125 47.40625 23.390625 
Q 47.40625 31.296875 43.53125 35.828125 
Q 39.65625 40.375 33.015625 40.375 
z
M 52.59375 71.296875 
L 52.59375 62.3125 
Q 48.875 64.0625 45.09375 64.984375 
Q 41.3125 65.921875 37.59375 65.921875 
Q 27.828125 65.921875 22.671875 59.328125 
Q 17.53125 52.734375 16.796875 39.40625 
Q 19.671875 43.65625 24.015625 45.921875 
Q 28.375 48.1875 33.59375 48.1875 
Q 44.578125 48.1875 50.953125 41.515625 
Q 57.328125 34.859375 57.328125 23.390625 
Q 57.328125 12.15625 50.6875 5.359375 
Q 44.046875 -1.421875 33.015625 -1.421875 
Q 20.359375 -1.421875 13.671875 8.265625 
Q 6.984375 17.96875 6.984375 36.375 
Q 6.984375 53.65625 15.1875 63.9375 
Q 23.390625 74.21875 37.203125 74.21875 
Q 40.921875 74.21875 44.703125 73.484375 
Q 48.484375 72.75 52.59375 71.296875 
z
" id="DejaVuSans-36"/>
      </defs>
      <g transform="translate(259.276692 322.182437)scale(0.1 -0.1)">
       <use xlink:href="#DejaVuSans-36"/>
       <use x="63.623047" xlink:href="#DejaVuSans-30"/>
       <use x="127.246094" xlink:href="#DejaVuSans-30"/>
      </g>
     </g>
    </g>
    <g id="xtick_5">
     <g id="line2d_5">
      <g>
       <use style="stroke:#000000;stroke-width:0.8;" x="333.816347" xlink:href="#mbe499ba0c5" y="307.584"/>
      </g>
     </g>
     <g id="text_5">
      <!-- 800 -->
      <defs>
       <path d="M 31.78125 34.625 
Q 24.75 34.625 20.71875 30.859375 
Q 16.703125 27.09375 16.703125 20.515625 
Q 16.703125 13.921875 20.71875 10.15625 
Q 24.75 6.390625 31.78125 6.390625 
Q 38.8125 6.390625 42.859375 10.171875 
Q 46.921875 13.96875 46.921875 20.515625 
Q 46.921875 27.09375 42.890625 30.859375 
Q 38.875 34.625 31.78125 34.625 
z
M 21.921875 38.8125 
Q 15.578125 40.375 12.03125 44.71875 
Q 8.5 49.078125 8.5 55.328125 
Q 8.5 64.0625 14.71875 69.140625 
Q 20.953125 74.21875 31.78125 74.21875 
Q 42.671875 74.21875 48.875 69.140625 
Q 55.078125 64.0625 55.078125 55.328125 
Q 55.078125 49.078125 51.53125 44.71875 
Q 48 40.375 41.703125 38.8125 
Q 48.828125 37.15625 52.796875 32.3125 
Q 56.78125 27.484375 56.78125 20.515625 
Q 56.78125 9.90625 50.3125 4.234375 
Q 43.84375 -1.421875 31.78125 -1.421875 
Q 19.734375 -1.421875 13.25 4.234375 
Q 6.78125 9.90625 6.78125 20.515625 
Q 6.78125 27.484375 10.78125 32.3125 
Q 14.796875 37.15625 21.921875 38.8125 
z
M 18.3125 54.390625 
Q 18.3125 48.734375 21.84375 45.5625 
Q 25.390625 42.390625 31.78125 42.390625 
Q 38.140625 42.390625 41.71875 45.5625 
Q 45.3125 48.734375 45.3125 54.390625 
Q 45.3125 60.0625 41.71875 63.234375 
Q 38.140625 66.40625 31.78125 66.40625 
Q 25.390625 66.40625 21.84375 63.234375 
Q 18.3125 60.0625 18.3125 54.390625 
z
" id="DejaVuSans-38"/>
      </defs>
      <g transform="translate(324.272597 322.182437)scale(0.1 -0.1)">
       <use xlink:href="#DejaVuSans-38"/>
       <use x="63.623047" xlink:href="#DejaVuSans-30"/>
       <use x="127.246094" xlink:href="#DejaVuSans-30"/>
      </g>
     </g>
    </g>
    <g id="xtick_6">
     <g id="line2d_6">
      <g>
       <use style="stroke:#000000;stroke-width:0.8;" x="398.812252" xlink:href="#mbe499ba0c5" y="307.584"/>
      </g>
     </g>
     <g id="text_6">
      <!-- 1000 -->
      <defs>
       <path d="M 12.40625 8.296875 
L 28.515625 8.296875 
L 28.515625 63.921875 
L 10.984375 60.40625 
L 10.984375 69.390625 
L 28.421875 72.90625 
L 38.28125 72.90625 
L 38.28125 8.296875 
L 54.390625 8.296875 
L 54.390625 0 
L 12.40625 0 
z
" id="DejaVuSans-31"/>
      </defs>
      <g transform="translate(386.087252 322.182437)scale(0.1 -0.1)">
       <use xlink:href="#DejaVuSans-31"/>
       <use x="63.623047" xlink:href="#DejaVuSans-30"/>
       <use x="127.246094" xlink:href="#DejaVuSans-30"/>
       <use x="190.869141" xlink:href="#DejaVuSans-30"/>
      </g>
     </g>
    </g>
    <g id="text_7">
     <!-- epoch -->
     <defs>
      <path d="M 56.203125 29.59375 
L 56.203125 25.203125 
L 14.890625 25.203125 
Q 15.484375 15.921875 20.484375 11.0625 
Q 25.484375 6.203125 34.421875 6.203125 
Q 39.59375 6.203125 44.453125 7.46875 
Q 49.3125 8.734375 54.109375 11.28125 
L 54.109375 2.78125 
Q 49.265625 0.734375 44.1875 -0.34375 
Q 39.109375 -1.421875 33.890625 -1.421875 
Q 20.796875 -1.421875 13.15625 6.1875 
Q 5.515625 13.8125 5.515625 26.8125 
Q 5.515625 40.234375 12.765625 48.109375 
Q 20.015625 56 32.328125 56 
Q 43.359375 56 49.78125 48.890625 
Q 56.203125 41.796875 56.203125 29.59375 
z
M 47.21875 32.234375 
Q 47.125 39.59375 43.09375 43.984375 
Q 39.0625 48.390625 32.421875 48.390625 
Q 24.90625 48.390625 20.390625 44.140625 
Q 15.875 39.890625 15.1875 32.171875 
z
" id="DejaVuSans-65"/>
      <path d="M 18.109375 8.203125 
L 18.109375 -20.796875 
L 9.078125 -20.796875 
L 9.078125 54.6875 
L 18.109375 54.6875 
L 18.109375 46.390625 
Q 20.953125 51.265625 25.265625 53.625 
Q 29.59375 56 35.59375 56 
Q 45.5625 56 51.78125 48.09375 
Q 58.015625 40.1875 58.015625 27.296875 
Q 58.015625 14.40625 51.78125 6.484375 
Q 45.5625 -1.421875 35.59375 -1.421875 
Q 29.59375 -1.421875 25.265625 0.953125 
Q 20.953125 3.328125 18.109375 8.203125 
z
M 48.6875 27.296875 
Q 48.6875 37.203125 44.609375 42.84375 
Q 40.53125 48.484375 33.40625 48.484375 
Q 26.265625 48.484375 22.1875 42.84375 
Q 18.109375 37.203125 18.109375 27.296875 
Q 18.109375 17.390625 22.1875 11.75 
Q 26.265625 6.109375 33.40625 6.109375 
Q 40.53125 6.109375 44.609375 11.75 
Q 48.6875 17.390625 48.6875 27.296875 
z
" id="DejaVuSans-70"/>
      <path d="M 30.609375 48.390625 
Q 23.390625 48.390625 19.1875 42.75 
Q 14.984375 37.109375 14.984375 27.296875 
Q 14.984375 17.484375 19.15625 11.84375 
Q 23.34375 6.203125 30.609375 6.203125 
Q 37.796875 6.203125 41.984375 11.859375 
Q 46.1875 17.53125 46.1875 27.296875 
Q 46.1875 37.015625 41.984375 42.703125 
Q 37.796875 48.390625 30.609375 48.390625 
z
M 30.609375 56 
Q 42.328125 56 49.015625 48.375 
Q 55.71875 40.765625 55.71875 27.296875 
Q 55.71875 13.875 49.015625 6.21875 
Q 42.328125 -1.421875 30.609375 -1.421875 
Q 18.84375 -1.421875 12.171875 6.21875 
Q 5.515625 13.875 5.515625 27.296875 
Q 5.515625 40.765625 12.171875 48.375 
Q 18.84375 56 30.609375 56 
z
" id="DejaVuSans-6f"/>
      <path d="M 48.78125 52.59375 
L 48.78125 44.1875 
Q 44.96875 46.296875 41.140625 47.34375 
Q 37.3125 48.390625 33.40625 48.390625 
Q 24.65625 48.390625 19.8125 42.84375 
Q 14.984375 37.3125 14.984375 27.296875 
Q 14.984375 17.28125 19.8125 11.734375 
Q 24.65625 6.203125 33.40625 6.203125 
Q 37.3125 6.203125 41.140625 7.25 
Q 44.96875 8.296875 48.78125 10.40625 
L 48.78125 2.09375 
Q 45.015625 0.34375 40.984375 -0.53125 
Q 36.96875 -1.421875 32.421875 -1.421875 
Q 20.0625 -1.421875 12.78125 6.34375 
Q 5.515625 14.109375 5.515625 27.296875 
Q 5.515625 40.671875 12.859375 48.328125 
Q 20.21875 56 33.015625 56 
Q 37.15625 56 41.109375 55.140625 
Q 45.0625 54.296875 48.78125 52.59375 
z
" id="DejaVuSans-63"/>
      <path d="M 54.890625 33.015625 
L 54.890625 0 
L 45.90625 0 
L 45.90625 32.71875 
Q 45.90625 40.484375 42.875 44.328125 
Q 39.84375 48.1875 33.796875 48.1875 
Q 26.515625 48.1875 22.3125 43.546875 
Q 18.109375 38.921875 18.109375 30.90625 
L 18.109375 0 
L 9.078125 0 
L 9.078125 75.984375 
L 18.109375 75.984375 
L 18.109375 46.1875 
Q 21.34375 51.125 25.703125 53.5625 
Q 30.078125 56 35.796875 56 
Q 45.21875 56 50.046875 50.171875 
Q 54.890625 44.34375 54.890625 33.015625 
z
" id="DejaVuSans-68"/>
     </defs>
     <g transform="translate(220.931875 335.860562)scale(0.1 -0.1)">
      <use xlink:href="#DejaVuSans-65"/>
      <use x="61.523438" xlink:href="#DejaVuSans-70"/>
      <use x="125" xlink:href="#DejaVuSans-6f"/>
      <use x="186.181641" xlink:href="#DejaVuSans-63"/>
      <use x="241.162109" xlink:href="#DejaVuSans-68"/>
     </g>
    </g>
   </g>
   <g id="matplotlib.axis_2">
    <g id="ytick_1">
     <g id="line2d_7">
      <defs>
       <path d="M 0 0 
L -3.5 0 
" id="mc859b4548f" style="stroke:#000000;stroke-width:0.8;"/>
      </defs>
      <g>
       <use style="stroke:#000000;stroke-width:0.8;" x="57.6" xlink:href="#mc859b4548f" y="299.310894"/>
      </g>
     </g>
     <g id="text_8">
      <!-- 0.00 -->
      <defs>
       <path d="M 10.6875 12.40625 
L 21 12.40625 
L 21 0 
L 10.6875 0 
z
" id="DejaVuSans-2e"/>
      </defs>
      <g transform="translate(28.334375 303.110113)scale(0.1 -0.1)">
       <use xlink:href="#DejaVuSans-30"/>
       <use x="63.623047" xlink:href="#DejaVuSans-2e"/>
       <use x="95.410156" xlink:href="#DejaVuSans-30"/>
       <use x="159.033203" xlink:href="#DejaVuSans-30"/>
      </g>
     </g>
    </g>
    <g id="ytick_2">
     <g id="line2d_8">
      <g>
       <use style="stroke:#000000;stroke-width:0.8;" x="57.6" xlink:href="#mc859b4548f" y="266.676881"/>
      </g>
     </g>
     <g id="text_9">
      <!-- 0.25 -->
      <defs>
       <path d="M 10.796875 72.90625 
L 49.515625 72.90625 
L 49.515625 64.59375 
L 19.828125 64.59375 
L 19.828125 46.734375 
Q 21.96875 47.46875 24.109375 47.828125 
Q 26.265625 48.1875 28.421875 48.1875 
Q 40.625 48.1875 47.75 41.5 
Q 54.890625 34.8125 54.890625 23.390625 
Q 54.890625 11.625 47.5625 5.09375 
Q 40.234375 -1.421875 26.90625 -1.421875 
Q 22.3125 -1.421875 17.546875 -0.640625 
Q 12.796875 0.140625 7.71875 1.703125 
L 7.71875 11.625 
Q 12.109375 9.234375 16.796875 8.0625 
Q 21.484375 6.890625 26.703125 6.890625 
Q 35.15625 6.890625 40.078125 11.328125 
Q 45.015625 15.765625 45.015625 23.390625 
Q 45.015625 31 40.078125 35.4375 
Q 35.15625 39.890625 26.703125 39.890625 
Q 22.75 39.890625 18.8125 39.015625 
Q 14.890625 38.140625 10.796875 36.28125 
z
" id="DejaVuSans-35"/>
      </defs>
      <g transform="translate(28.334375 270.476099)scale(0.1 -0.1)">
       <use xlink:href="#DejaVuSans-30"/>
       <use x="63.623047" xlink:href="#DejaVuSans-2e"/>
       <use x="95.410156" xlink:href="#DejaVuSans-32"/>
       <use x="159.033203" xlink:href="#DejaVuSans-35"/>
      </g>
     </g>
    </g>
    <g id="ytick_3">
     <g id="line2d_9">
      <g>
       <use style="stroke:#000000;stroke-width:0.8;" x="57.6" xlink:href="#mc859b4548f" y="234.042867"/>
      </g>
     </g>
     <g id="text_10">
      <!-- 0.50 -->
      <g transform="translate(28.334375 237.842086)scale(0.1 -0.1)">
       <use xlink:href="#DejaVuSans-30"/>
       <use x="63.623047" xlink:href="#DejaVuSans-2e"/>
       <use x="95.410156" xlink:href="#DejaVuSans-35"/>
       <use x="159.033203" xlink:href="#DejaVuSans-30"/>
      </g>
     </g>
    </g>
    <g id="ytick_4">
     <g id="line2d_10">
      <g>
       <use style="stroke:#000000;stroke-width:0.8;" x="57.6" xlink:href="#mc859b4548f" y="201.408854"/>
      </g>
     </g>
     <g id="text_11">
      <!-- 0.75 -->
      <defs>
       <path d="M 8.203125 72.90625 
L 55.078125 72.90625 
L 55.078125 68.703125 
L 28.609375 0 
L 18.3125 0 
L 43.21875 64.59375 
L 8.203125 64.59375 
z
" id="DejaVuSans-37"/>
      </defs>
      <g transform="translate(28.334375 205.208073)scale(0.1 -0.1)">
       <use xlink:href="#DejaVuSans-30"/>
       <use x="63.623047" xlink:href="#DejaVuSans-2e"/>
       <use x="95.410156" xlink:href="#DejaVuSans-37"/>
       <use x="159.033203" xlink:href="#DejaVuSans-35"/>
      </g>
     </g>
    </g>
    <g id="ytick_5">
     <g id="line2d_11">
      <g>
       <use style="stroke:#000000;stroke-width:0.8;" x="57.6" xlink:href="#mc859b4548f" y="168.774841"/>
      </g>
     </g>
     <g id="text_12">
      <!-- 1.00 -->
      <g transform="translate(28.334375 172.574059)scale(0.1 -0.1)">
       <use xlink:href="#DejaVuSans-31"/>
       <use x="63.623047" xlink:href="#DejaVuSans-2e"/>
       <use x="95.410156" xlink:href="#DejaVuSans-30"/>
       <use x="159.033203" xlink:href="#DejaVuSans-30"/>
      </g>
     </g>
    </g>
    <g id="ytick_6">
     <g id="line2d_12">
      <g>
       <use style="stroke:#000000;stroke-width:0.8;" x="57.6" xlink:href="#mc859b4548f" y="136.140827"/>
      </g>
     </g>
     <g id="text_13">
      <!-- 1.25 -->
      <g transform="translate(28.334375 139.940046)scale(0.1 -0.1)">
       <use xlink:href="#DejaVuSans-31"/>
       <use x="63.623047" xlink:href="#DejaVuSans-2e"/>
       <use x="95.410156" xlink:href="#DejaVuSans-32"/>
       <use x="159.033203" xlink:href="#DejaVuSans-35"/>
      </g>
     </g>
    </g>
    <g id="ytick_7">
     <g id="line2d_13">
      <g>
       <use style="stroke:#000000;stroke-width:0.8;" x="57.6" xlink:href="#mc859b4548f" y="103.506814"/>
      </g>
     </g>
     <g id="text_14">
      <!-- 1.50 -->
      <g transform="translate(28.334375 107.306033)scale(0.1 -0.1)">
       <use xlink:href="#DejaVuSans-31"/>
       <use x="63.623047" xlink:href="#DejaVuSans-2e"/>
       <use x="95.410156" xlink:href="#DejaVuSans-35"/>
       <use x="159.033203" xlink:href="#DejaVuSans-30"/>
      </g>
     </g>
    </g>
    <g id="ytick_8">
     <g id="line2d_14">
      <g>
       <use style="stroke:#000000;stroke-width:0.8;" x="57.6" xlink:href="#mc859b4548f" y="70.872801"/>
      </g>
     </g>
     <g id="text_15">
      <!-- 1.75 -->
      <g transform="translate(28.334375 74.672019)scale(0.1 -0.1)">
       <use xlink:href="#DejaVuSans-31"/>
       <use x="63.623047" xlink:href="#DejaVuSans-2e"/>
       <use x="95.410156" xlink:href="#DejaVuSans-37"/>
       <use x="159.033203" xlink:href="#DejaVuSans-35"/>
      </g>
     </g>
    </g>
    <g id="text_16">
     <!-- loss -->
     <defs>
      <path d="M 9.421875 75.984375 
L 18.40625 75.984375 
L 18.40625 0 
L 9.421875 0 
z
" id="DejaVuSans-6c"/>
      <path d="M 44.28125 53.078125 
L 44.28125 44.578125 
Q 40.484375 46.53125 36.375 47.5 
Q 32.28125 48.484375 27.875 48.484375 
Q 21.1875 48.484375 17.84375 46.4375 
Q 14.5 44.390625 14.5 40.28125 
Q 14.5 37.15625 16.890625 35.375 
Q 19.28125 33.59375 26.515625 31.984375 
L 29.59375 31.296875 
Q 39.15625 29.25 43.1875 25.515625 
Q 47.21875 21.78125 47.21875 15.09375 
Q 47.21875 7.46875 41.1875 3.015625 
Q 35.15625 -1.421875 24.609375 -1.421875 
Q 20.21875 -1.421875 15.453125 -0.5625 
Q 10.6875 0.296875 5.421875 2 
L 5.421875 11.28125 
Q 10.40625 8.6875 15.234375 7.390625 
Q 20.0625 6.109375 24.8125 6.109375 
Q 31.15625 6.109375 34.5625 8.28125 
Q 37.984375 10.453125 37.984375 14.40625 
Q 37.984375 18.0625 35.515625 20.015625 
Q 33.0625 21.96875 24.703125 23.78125 
L 21.578125 24.515625 
Q 13.234375 26.265625 9.515625 29.90625 
Q 5.8125 33.546875 5.8125 39.890625 
Q 5.8125 47.609375 11.28125 51.796875 
Q 16.75 56 26.8125 56 
Q 31.78125 56 36.171875 55.265625 
Q 40.578125 54.546875 44.28125 53.078125 
z
" id="DejaVuSans-73"/>
     </defs>
     <g transform="translate(22.254688 184.185812)rotate(-90)scale(0.1 -0.1)">
      <use xlink:href="#DejaVuSans-6c"/>
      <use x="27.783203" xlink:href="#DejaVuSans-6f"/>
      <use x="88.964844" xlink:href="#DejaVuSans-73"/>
      <use x="141.064453" xlink:href="#DejaVuSans-73"/>
     </g>
    </g>
    <g id="text_17">
     <!-- 1e8 -->
     <g transform="translate(57.6 38.472)scale(0.1 -0.1)">
      <use xlink:href="#DejaVuSans-31"/>
      <use x="63.623047" xlink:href="#DejaVuSans-65"/>
      <use x="125.146484" xlink:href="#DejaVuSans-38"/>
     </g>
    </g>
   </g>
   <g id="line2d_15">
    <path clip-path="url(#pd9677acfb2)" d="M 73.832727 53.568 
L 75.457625 53.71664 
L 77.407502 53.956194 
L 79.0324 54.23619 
L 80.007338 54.478177 
L 80.657297 54.712621 
L 80.982277 54.701921 
L 81.307256 54.953977 
L 81.632236 54.926171 
L 82.282195 55.352018 
L 82.607174 55.343677 
L 82.932154 55.608641 
L 83.257133 55.606356 
L 83.582113 55.919589 
L 83.907093 56.011662 
L 84.232072 56.405236 
L 84.557052 56.463457 
L 84.882031 56.804784 
L 85.207011 56.884138 
L 85.85697 57.707129 
L 86.506929 58.039202 
L 87.481867 59.282687 
L 88.131826 60.458514 
L 88.456806 60.826445 
L 88.781785 60.748653 
L 89.106765 61.958416 
L 89.431744 61.991132 
L 89.756724 62.349417 
L 90.081704 63.908339 
L 90.406683 63.743208 
L 90.731663 64.763708 
L 91.056642 65.352966 
L 91.381622 66.186359 
L 91.706601 67.783087 
L 92.031581 67.845323 
L 92.35656 68.684386 
L 92.68154 68.835598 
L 93.006519 70.791659 
L 93.656478 72.05786 
L 94.631417 77.008151 
L 94.956396 76.895171 
L 95.281376 79.377169 
L 95.931335 81.341867 
L 96.581294 85.052778 
L 96.906274 85.384755 
L 97.231253 88.557406 
L 97.556233 90.251202 
L 97.881212 91.250045 
L 98.206192 93.393249 
L 98.531171 92.937752 
L 98.856151 96.312818 
L 99.18113 97.432434 
L 99.50611 102.266196 
L 99.831089 101.674765 
L 100.156069 105.503686 
L 100.481048 103.233704 
L 100.806028 104.801995 
L 101.131007 109.436961 
L 101.780966 112.770646 
L 102.105946 113.383934 
L 102.430925 116.441452 
L 102.755905 120.893691 
L 103.080885 123.649273 
L 103.405864 118.906249 
L 103.730844 125.108377 
L 104.055823 127.575415 
L 104.380803 128.485336 
L 104.705782 128.025923 
L 105.030762 130.63028 
L 105.355741 129.757311 
L 106.0057 136.1762 
L 106.33068 135.565658 
L 106.655659 136.418116 
L 107.305618 140.386614 
L 107.630598 141.863758 
L 107.955577 144.752702 
L 108.280557 143.237045 
L 108.605536 148.765349 
L 108.930516 151.313911 
L 109.255495 150.015777 
L 109.580475 151.471837 
L 109.905455 149.691572 
L 110.230434 153.487058 
L 110.555414 151.622715 
L 110.880393 152.021058 
L 111.205373 152.230294 
L 111.530352 153.513082 
L 111.855332 153.169378 
L 112.180311 156.646307 
L 112.505291 152.451351 
L 113.480229 156.410419 
L 113.805209 154.973166 
L 114.130188 155.524866 
L 114.455168 158.423806 
L 114.780147 155.736786 
L 115.430106 161.85985 
L 115.755086 157.951231 
L 116.080066 158.408723 
L 116.405045 156.357068 
L 116.730025 150.557396 
L 117.055004 159.178088 
L 117.379984 149.373868 
L 117.704963 153.171093 
L 118.029943 155.311201 
L 118.354922 155.772429 
L 118.679902 161.095684 
L 119.004881 157.022267 
L 119.329861 158.995571 
L 119.65484 157.085693 
L 119.97982 161.591175 
L 120.304799 156.09724 
L 120.629779 161.191357 
L 120.954758 155.42145 
L 121.279738 164.343076 
L 121.604717 165.639469 
L 121.929697 153.726573 
L 122.254676 161.264284 
L 122.579656 157.563621 
L 122.904636 156.233025 
L 123.229615 155.622959 
L 123.554595 158.675605 
L 123.879574 156.173506 
L 124.204554 163.187481 
L 124.529533 160.194401 
L 124.854513 158.994941 
L 125.179492 161.157156 
L 125.504472 154.75589 
L 125.829451 159.648655 
L 126.47941 150.553351 
L 126.80439 153.314676 
L 127.129369 158.971114 
L 127.454349 162.22165 
L 127.779328 161.560123 
L 128.104308 159.895199 
L 128.429287 160.224234 
L 129.079247 164.818896 
L 129.729206 153.509012 
L 130.054185 156.431607 
L 130.379165 153.608694 
L 130.704144 158.720322 
L 131.029124 159.015625 
L 131.354103 157.86632 
L 131.679083 158.976967 
L 132.004062 159.461617 
L 132.329042 158.771712 
L 132.654021 156.507018 
L 132.979001 161.476738 
L 133.30398 158.214239 
L 133.62896 160.304279 
L 133.953939 157.076813 
L 134.278919 156.411437 
L 134.603898 159.676109 
L 134.928878 158.677513 
L 135.253857 158.95249 
L 135.578837 159.765433 
L 135.903817 162.898967 
L 136.228796 157.649336 
L 136.553776 161.816263 
L 136.878755 162.722094 
L 137.203735 156.335866 
L 137.528714 161.127597 
L 137.853694 164.274052 
L 138.503653 164.978639 
L 138.828632 159.133363 
L 139.153612 162.01257 
L 139.478591 159.463421 
L 139.803571 159.704882 
L 140.12855 160.188232 
L 140.45353 161.948979 
L 140.778509 156.7759 
L 141.103489 166.348713 
L 141.428468 157.874251 
L 141.753448 163.825506 
L 142.078428 160.128923 
L 142.403407 157.997811 
L 142.728387 161.848875 
L 143.053366 158.307807 
L 143.378346 161.393567 
L 143.703325 162.629645 
L 144.028305 150.860035 
L 144.353284 159.989255 
L 144.678264 158.23137 
L 145.003243 160.815443 
L 145.328223 166.032887 
L 145.978182 158.211966 
L 146.303161 167.255612 
L 146.628141 168.010207 
L 146.95312 159.625924 
L 147.603079 166.565013 
L 147.928059 156.802309 
L 148.253038 158.878943 
L 148.578018 156.587941 
L 148.902998 160.173778 
L 149.227977 157.97024 
L 149.552957 161.479338 
L 149.877936 161.324189 
L 150.202916 163.76795 
L 150.527895 163.65835 
L 150.852875 158.168625 
L 151.177854 162.920961 
L 151.502834 164.205768 
L 152.152793 160.06623 
L 152.477772 157.047086 
L 152.802752 166.676145 
L 153.127731 157.700694 
L 153.452711 163.009727 
L 153.77769 164.755101 
L 154.10267 162.495241 
L 154.427649 165.817508 
L 154.752629 166.513088 
L 155.077609 165.122719 
L 155.402588 160.393422 
L 155.727568 160.086457 
L 156.052547 162.334747 
L 156.377527 166.285687 
L 156.702506 164.979075 
L 157.027486 161.834739 
L 157.352465 164.687387 
L 157.677445 162.126649 
L 158.002424 161.831853 
L 158.327404 159.056872 
L 158.652383 170.74755 
L 158.977363 160.795984 
L 159.302342 158.230329 
L 159.627322 162.631368 
L 159.952301 163.528741 
L 160.277281 165.397688 
L 160.60226 165.169558 
L 160.92724 163.829018 
L 161.252219 164.948512 
L 161.577199 163.196644 
L 161.902179 163.268478 
L 162.227158 161.017178 
L 162.552138 160.545482 
L 162.877117 167.777359 
L 163.202097 161.451624 
L 163.527076 164.235691 
L 163.852056 162.396332 
L 164.177035 167.664418 
L 164.826994 160.697634 
L 165.151974 165.905844 
L 165.476953 158.228403 
L 165.801933 167.219766 
L 166.126912 158.07938 
L 166.451892 168.279033 
L 166.776871 164.889301 
L 167.101851 162.923725 
L 167.42683 168.392819 
L 167.75181 162.338775 
L 168.07679 164.625723 
L 168.401769 164.979386 
L 168.726749 162.982686 
L 169.051728 163.386979 
L 169.376708 162.050019 
L 169.701687 163.799901 
L 170.026667 167.102056 
L 170.351646 166.242548 
L 170.676626 164.520101 
L 171.001605 166.0718 
L 171.326585 162.811736 
L 171.651564 162.614995 
L 171.976544 167.747263 
L 172.301523 160.663252 
L 172.626503 162.911583 
L 172.951482 162.923481 
L 173.276462 161.232817 
L 173.601441 167.650497 
L 173.926421 167.091517 
L 174.2514 167.241943 
L 174.57638 165.913858 
L 174.90136 165.378572 
L 175.226339 166.176007 
L 175.551319 170.308728 
L 175.876298 162.318682 
L 176.201278 165.631071 
L 176.526257 160.97864 
L 176.851237 170.29821 
L 177.501196 164.169557 
L 177.826175 168.069714 
L 178.151155 164.462834 
L 178.476134 165.56354 
L 178.801114 162.495219 
L 179.126093 161.026756 
L 179.776052 170.085011 
L 180.101032 159.967021 
L 180.426011 164.290156 
L 180.750991 162.462907 
L 181.075971 166.509307 
L 181.40095 162.015145 
L 181.72593 160.061646 
L 182.050909 159.348896 
L 182.375889 167.480143 
L 182.700868 165.49187 
L 183.025848 168.230737 
L 183.350827 166.394782 
L 183.675807 161.281627 
L 184.000786 170.945639 
L 184.650745 164.25463 
L 184.975725 167.413642 
L 185.300704 166.07374 
L 185.625684 167.945531 
L 185.950663 163.618128 
L 186.275643 161.288165 
L 186.600622 165.689419 
L 186.925602 160.978221 
L 187.250581 166.757618 
L 187.575561 167.593321 
L 187.900541 165.647303 
L 188.22552 168.681522 
L 188.5505 169.807918 
L 188.875479 168.974225 
L 189.200459 166.827615 
L 189.525438 161.519033 
L 189.850418 161.804942 
L 190.175397 165.175054 
L 190.500377 161.049692 
L 190.825356 160.856412 
L 191.475315 165.983856 
L 191.800295 164.465513 
L 192.125274 167.967255 
L 192.450254 162.268974 
L 192.775233 167.322417 
L 193.100213 164.525038 
L 193.750172 161.888463 
L 194.075152 167.253109 
L 194.725111 160.223936 
L 195.05009 166.499536 
L 195.37507 164.793199 
L 195.700049 165.23733 
L 196.025029 168.695459 
L 196.350008 169.39132 
L 196.674988 173.931553 
L 196.999967 164.143357 
L 197.324947 164.900768 
L 197.649926 165.985635 
L 197.974906 164.81184 
L 198.299885 166.949477 
L 198.624865 161.472596 
L 198.949844 165.326841 
L 199.274824 159.182059 
L 199.599803 172.033069 
L 199.924783 175.77669 
L 200.249762 167.784559 
L 200.574742 167.720169 
L 200.899722 168.057098 
L 201.224701 164.360359 
L 201.549681 162.309972 
L 201.87466 162.855094 
L 202.19964 174.774456 
L 202.524619 172.20922 
L 203.174578 163.118438 
L 203.499558 164.647705 
L 204.149517 162.581645 
L 204.474496 170.676101 
L 204.799476 170.384657 
L 205.124455 163.003516 
L 205.449435 165.556469 
L 205.774414 162.181688 
L 206.099394 166.571608 
L 206.424373 162.960565 
L 206.749353 164.616279 
L 207.074333 171.257908 
L 207.399312 162.638231 
L 207.724292 170.026705 
L 208.049271 170.079153 
L 208.374251 169.812519 
L 209.02421 165.604146 
L 209.349189 172.720194 
L 209.674169 163.717182 
L 209.999148 160.384391 
L 210.649107 168.034757 
L 210.974087 170.595532 
L 211.299066 168.77457 
L 211.624046 177.890621 
L 211.949025 169.426843 
L 212.274005 169.802947 
L 212.598984 166.502331 
L 212.923964 166.415501 
L 213.248943 161.898924 
L 213.573923 163.70876 
L 213.898903 169.130357 
L 214.223882 164.221805 
L 214.548862 162.504651 
L 214.873841 168.441563 
L 215.198821 164.734686 
L 215.5238 169.160983 
L 215.84878 167.699026 
L 216.173759 172.037063 
L 216.498739 167.991021 
L 216.823718 167.164305 
L 217.148698 161.00496 
L 217.473677 169.204169 
L 217.798657 165.066819 
L 218.123636 169.657798 
L 218.448616 172.556331 
L 218.773595 167.624826 
L 219.098575 166.090972 
L 219.423554 167.992926 
L 219.748534 170.657576 
L 220.398493 164.502524 
L 220.723473 164.311062 
L 221.048452 163.444662 
L 221.373432 166.002483 
L 221.698411 174.067327 
L 222.023391 165.945504 
L 222.34837 165.850692 
L 222.67335 166.601991 
L 222.998329 165.483427 
L 223.323309 161.15452 
L 223.648288 167.709703 
L 223.973268 168.977464 
L 224.298247 168.030163 
L 224.623227 169.034042 
L 224.948206 164.816882 
L 225.273186 169.125421 
L 225.598165 164.694858 
L 225.923145 163.097722 
L 226.248124 165.208293 
L 226.573104 155.708375 
L 226.898084 172.773138 
L 227.223063 163.983438 
L 227.548043 167.853802 
L 227.873022 169.778629 
L 228.198002 161.8932 
L 228.522981 169.72487 
L 228.847961 167.409229 
L 229.17294 164.027522 
L 229.49792 173.071435 
L 230.147879 165.264528 
L 230.472858 172.008819 
L 230.797838 166.599969 
L 231.447797 176.234216 
L 231.772776 167.808622 
L 232.097756 167.091775 
L 232.422735 168.887875 
L 232.747715 160.270125 
L 233.072695 169.945354 
L 233.397674 168.91669 
L 233.722654 171.23717 
L 234.047633 167.736355 
L 234.372613 172.970568 
L 234.697592 170.68418 
L 235.022572 170.029763 
L 235.347551 168.212935 
L 235.672531 173.169786 
L 235.99751 169.103108 
L 236.32249 162.321934 
L 236.647469 168.642737 
L 236.972449 160.705996 
L 237.622408 167.305673 
L 237.947387 164.870848 
L 238.272367 163.909142 
L 238.597346 169.988945 
L 238.922326 169.720733 
L 239.247305 167.460409 
L 239.572285 167.335225 
L 239.897265 171.962112 
L 240.222244 168.074171 
L 240.547224 161.334338 
L 240.872203 165.419227 
L 241.197183 165.605231 
L 241.522162 162.350313 
L 241.847142 167.457864 
L 242.172121 162.3957 
L 242.497101 164.166779 
L 242.82208 169.949157 
L 243.14706 169.100893 
L 243.472039 169.904016 
L 243.797019 165.367307 
L 244.121998 173.922794 
L 244.446978 169.157523 
L 244.771957 166.48464 
L 245.096937 169.865545 
L 245.421916 170.624444 
L 245.746896 160.803299 
L 246.071876 162.274325 
L 246.396855 168.805165 
L 246.721835 163.689172 
L 247.371794 170.139827 
L 247.696773 169.235791 
L 248.021753 171.034809 
L 248.346732 176.14161 
L 248.671712 167.004423 
L 248.996691 168.046514 
L 249.321671 167.71025 
L 249.64665 169.102396 
L 249.97163 164.775945 
L 250.296609 166.83064 
L 250.621589 167.459107 
L 251.271548 171.636198 
L 251.596527 166.453137 
L 251.921507 167.739766 
L 252.246486 165.61466 
L 252.571466 165.880747 
L 252.896446 176.070517 
L 253.221425 161.996681 
L 254.196364 171.10933 
L 254.846323 162.969546 
L 255.171302 170.972244 
L 255.496282 165.126382 
L 255.821261 170.895015 
L 256.146241 164.949762 
L 256.47122 169.205723 
L 256.7962 170.55275 
L 257.121179 169.161177 
L 257.446159 177.523766 
L 257.771138 173.785891 
L 258.096118 171.837397 
L 258.421097 167.685212 
L 258.746077 174.966616 
L 259.071057 166.449644 
L 259.396036 170.247244 
L 259.721016 170.458715 
L 260.045995 166.677325 
L 260.370975 167.406687 
L 260.695954 170.002465 
L 261.020934 169.68434 
L 261.345913 165.581278 
L 261.670893 167.54523 
L 261.995872 170.748963 
L 262.320852 170.163778 
L 262.645831 168.020506 
L 262.970811 171.528945 
L 263.29579 166.065864 
L 263.62077 172.123286 
L 263.945749 163.117718 
L 264.270729 168.51117 
L 264.595708 167.310373 
L 264.920688 168.62206 
L 265.245667 167.172477 
L 265.570647 173.296317 
L 265.895627 161.453908 
L 266.220606 169.183934 
L 266.545586 165.345918 
L 266.870565 168.295727 
L 267.195545 170.165962 
L 267.520524 178.416837 
L 267.845504 168.312655 
L 268.495463 161.932973 
L 268.820442 171.491733 
L 269.145422 163.375085 
L 269.795381 176.986125 
L 270.12036 164.710156 
L 270.44534 164.467723 
L 270.770319 167.437632 
L 271.095299 160.057466 
L 271.420278 163.55111 
L 271.745258 165.763968 
L 272.070238 165.822077 
L 272.395217 167.355571 
L 273.045176 172.056443 
L 273.370156 173.976418 
L 273.695135 164.926705 
L 274.020115 169.024385 
L 274.345094 168.484478 
L 274.670074 168.324912 
L 274.995053 171.536885 
L 275.320033 167.902822 
L 275.645012 177.782596 
L 275.969992 167.49903 
L 276.294971 168.767826 
L 276.619951 166.905613 
L 276.94493 169.64085 
L 277.26991 167.316405 
L 277.594889 176.98693 
L 277.919869 176.22046 
L 278.244848 164.091386 
L 278.894808 177.613704 
L 279.219787 177.567855 
L 279.869746 164.983025 
L 280.194726 169.227209 
L 280.519705 169.79285 
L 280.844685 167.874312 
L 281.169664 168.2411 
L 281.494644 171.132747 
L 281.819623 164.016599 
L 282.144603 167.766663 
L 282.469582 168.917275 
L 282.794562 172.269285 
L 283.119541 166.836259 
L 283.444521 174.431904 
L 283.7695 175.969027 
L 284.09448 170.477492 
L 284.419459 173.045624 
L 284.744439 166.337312 
L 285.069419 171.639891 
L 285.394398 171.231469 
L 285.719378 171.450762 
L 286.044357 168.554553 
L 286.369337 171.194113 
L 286.694316 169.099303 
L 287.019296 170.65291 
L 287.344275 170.222225 
L 287.669255 166.390127 
L 287.994234 170.760044 
L 288.319214 165.013148 
L 288.644193 165.089327 
L 289.294152 172.031395 
L 289.619132 166.500673 
L 289.944111 165.043477 
L 290.59407 168.515666 
L 290.91905 162.899275 
L 291.244029 163.620517 
L 291.569009 171.16645 
L 291.893989 169.936728 
L 292.218968 173.384979 
L 292.543948 168.378875 
L 292.868927 172.455747 
L 293.193907 171.005778 
L 293.518886 168.982003 
L 293.843866 162.2159 
L 294.168845 168.132909 
L 294.493825 170.168949 
L 294.818804 168.188593 
L 295.143784 172.597897 
L 295.468763 169.636125 
L 295.793743 178.874685 
L 296.118722 166.724969 
L 296.443702 170.572418 
L 296.768681 177.540263 
L 297.093661 168.492315 
L 297.41864 166.811492 
L 297.74362 177.462754 
L 298.0686 167.738042 
L 298.393579 166.968071 
L 298.718559 174.724874 
L 299.043538 161.026788 
L 299.368518 173.650502 
L 299.693497 166.530361 
L 300.018477 180.188164 
L 300.343456 163.96294 
L 300.668436 161.681796 
L 300.993415 174.08642 
L 301.318395 168.626357 
L 301.643374 179.656615 
L 301.968354 172.726318 
L 302.293333 177.065203 
L 302.618313 168.522931 
L 302.943292 170.060078 
L 303.268272 169.75691 
L 303.593251 168.707626 
L 303.918231 171.584135 
L 304.24321 165.904493 
L 304.56819 170.270626 
L 304.89317 172.228815 
L 305.218149 166.027554 
L 305.543129 169.492187 
L 305.868108 170.187663 
L 306.193088 172.125211 
L 306.518067 172.842012 
L 306.843047 174.173852 
L 307.168026 167.634146 
L 307.493006 173.619247 
L 307.817985 174.138086 
L 308.142965 168.729377 
L 308.467944 168.791112 
L 308.792924 167.936883 
L 309.117903 168.95123 
L 309.442883 167.26483 
L 309.767862 166.60894 
L 310.092842 174.057695 
L 310.417821 167.587557 
L 310.742801 164.693756 
L 311.067781 176.480603 
L 311.39276 178.501253 
L 311.71774 167.263082 
L 312.367699 174.397971 
L 312.692678 173.420355 
L 313.017658 170.63079 
L 313.342637 166.14135 
L 313.667617 172.68975 
L 313.992596 176.760261 
L 314.317576 172.43662 
L 314.642555 166.496907 
L 314.967535 180.727465 
L 315.292514 165.783891 
L 315.942473 173.684347 
L 316.267453 171.302035 
L 316.592432 167.278098 
L 316.917412 176.599456 
L 317.242391 171.461387 
L 317.567371 175.969235 
L 317.892351 174.792801 
L 318.21733 166.238165 
L 318.54231 169.361109 
L 318.867289 170.992224 
L 319.192269 169.149291 
L 319.842228 162.722738 
L 320.492187 168.84161 
L 320.817166 169.746996 
L 321.142146 173.46858 
L 321.467125 166.906953 
L 321.792105 171.20292 
L 322.442064 173.546862 
L 322.767043 168.588937 
L 323.092023 173.000911 
L 323.417002 171.476282 
L 323.741982 168.13253 
L 324.066962 174.190432 
L 324.391941 166.118859 
L 324.716921 176.935399 
L 325.0419 173.285784 
L 325.36688 176.574772 
L 325.691859 164.787108 
L 326.016839 170.663417 
L 326.341818 168.07441 
L 326.666798 172.412967 
L 326.991777 166.349809 
L 327.316757 172.394659 
L 327.641736 170.837504 
L 327.966716 165.728164 
L 328.291695 175.033125 
L 328.941654 168.73507 
L 329.266634 172.178204 
L 329.916593 166.311256 
L 330.241572 172.473934 
L 330.566552 166.457775 
L 330.891532 175.829261 
L 331.216511 171.429 
L 331.541491 173.776614 
L 331.86647 168.195753 
L 332.19145 170.725072 
L 332.516429 170.44335 
L 332.841409 169.93979 
L 333.166388 169.065746 
L 333.491368 169.416178 
L 333.816347 169.417977 
L 334.141327 169.769392 
L 334.466306 177.841147 
L 334.791286 175.462566 
L 335.116265 176.691724 
L 335.441245 171.067063 
L 335.766224 167.726342 
L 336.091204 167.161566 
L 336.416183 169.549926 
L 336.741163 176.396842 
L 337.066143 166.418147 
L 337.391122 168.04929 
L 337.716102 171.929493 
L 338.041081 169.846197 
L 338.366061 174.790674 
L 338.69104 163.729815 
L 339.01602 172.301648 
L 339.340999 172.781502 
L 339.665979 171.376145 
L 339.990958 167.255934 
L 340.315938 172.162867 
L 340.640917 170.637184 
L 340.965897 173.79484 
L 341.290876 174.467784 
L 341.615856 175.543021 
L 341.940835 165.92726 
L 342.265815 172.033487 
L 342.590794 168.797832 
L 342.915774 169.208704 
L 343.240753 164.99312 
L 343.565733 173.281466 
L 343.890713 176.470105 
L 344.215692 164.983805 
L 344.540672 176.426275 
L 344.865651 169.942667 
L 345.190631 174.378937 
L 346.165569 161.491108 
L 346.815528 173.308568 
L 347.140508 169.66864 
L 347.465487 172.672822 
L 347.790467 168.821583 
L 348.115446 168.39585 
L 348.440426 177.288384 
L 348.765405 168.578913 
L 349.090385 166.948585 
L 349.740344 168.401499 
L 350.065324 177.4218 
L 350.390303 170.320545 
L 350.715283 169.640669 
L 351.040262 169.94376 
L 351.365242 169.542472 
L 351.690221 173.742463 
L 352.015201 167.358829 
L 352.34018 163.75106 
L 352.990139 171.540216 
L 353.315119 165.611583 
L 353.640098 170.83035 
L 353.965078 172.856678 
L 354.290057 169.094862 
L 354.615037 167.551128 
L 354.940016 170.021327 
L 355.264996 168.032581 
L 355.589975 165.120835 
L 355.914955 178.563757 
L 356.239934 179.735652 
L 356.564914 167.01427 
L 356.889894 170.469825 
L 357.214873 178.519022 
L 357.539853 174.195761 
L 358.189812 170.588734 
L 358.514791 173.988019 
L 358.839771 172.179371 
L 359.48973 167.919655 
L 359.814709 169.290506 
L 360.139689 175.157774 
L 360.464668 175.218747 
L 360.789648 180.750456 
L 361.439607 167.485327 
L 361.764586 175.979865 
L 362.089566 173.696253 
L 362.414545 174.672696 
L 362.739525 171.758225 
L 363.064505 171.175186 
L 363.389484 171.52164 
L 363.714464 167.948048 
L 364.039443 168.057605 
L 364.364423 167.878468 
L 364.689402 170.426201 
L 365.014382 170.132361 
L 365.339361 171.135717 
L 365.664341 175.128623 
L 365.98932 175.935068 
L 366.3143 168.913653 
L 366.639279 169.075725 
L 366.964259 177.215194 
L 367.289238 167.977274 
L 367.614218 175.231825 
L 367.939197 178.713663 
L 368.589156 172.281083 
L 368.914136 175.816423 
L 369.239115 169.57096 
L 369.564095 169.956433 
L 369.889075 173.028775 
L 370.214054 169.008584 
L 370.539034 167.335435 
L 371.188993 172.512972 
L 371.513972 173.622832 
L 371.838952 176.189868 
L 372.163931 167.905621 
L 372.488911 173.002212 
L 372.81389 168.630277 
L 373.13887 175.878991 
L 373.463849 169.224816 
L 373.788829 174.734571 
L 374.113808 173.986587 
L 374.438788 174.434151 
L 374.763767 171.697844 
L 375.088747 165.574822 
L 375.738706 174.742947 
L 376.063686 171.561022 
L 376.388665 169.568682 
L 376.713645 164.431959 
L 377.038624 170.307246 
L 377.363604 169.825874 
L 377.688583 168.488284 
L 378.013563 166.648329 
L 378.338542 178.778804 
L 378.663522 173.543236 
L 378.988501 165.672926 
L 379.313481 169.129024 
L 379.63846 166.558463 
L 379.96344 171.004295 
L 380.288419 168.837172 
L 380.613399 171.054882 
L 380.938378 170.731053 
L 381.263358 177.963166 
L 381.913317 169.04604 
L 382.238296 173.329651 
L 382.563276 170.105856 
L 382.888256 172.275592 
L 383.213235 172.005544 
L 383.538215 169.389816 
L 383.863194 176.123055 
L 384.188174 172.574565 
L 384.513153 171.172353 
L 384.838133 168.748844 
L 385.163112 177.056532 
L 385.488092 162.717926 
L 385.813071 170.856459 
L 386.138051 167.28825 
L 386.46303 173.493561 
L 386.78801 170.843153 
L 387.112989 165.145727 
L 387.437969 174.809374 
L 387.762948 170.340745 
L 388.087928 172.491711 
L 388.412907 169.657105 
L 388.737887 171.381466 
L 389.062867 169.51777 
L 389.712826 181.045232 
L 390.037805 169.817409 
L 390.362785 170.052515 
L 390.687764 172.09403 
L 391.012744 170.438274 
L 391.337723 175.841113 
L 391.662703 171.219586 
L 391.987682 173.803102 
L 392.312662 164.379002 
L 392.637641 175.212039 
L 392.962621 171.710027 
L 393.2876 172.163192 
L 393.61258 173.763082 
L 393.937559 179.928809 
L 394.262539 168.939291 
L 394.587518 171.154586 
L 395.237477 165.006968 
L 395.562457 177.804734 
L 395.887437 169.015662 
L 396.212416 172.549524 
L 396.537396 170.544332 
L 396.862375 166.641262 
L 397.187355 169.596043 
L 397.512334 170.938904 
L 397.837314 179.236173 
L 398.162293 174.034461 
L 398.487273 174.454913 
L 398.487273 174.454913 
" style="fill:none;stroke:#1f77b4;stroke-linecap:square;stroke-width:1.5;"/>
   </g>
   <g id="line2d_16">
    <path clip-path="url(#pd9677acfb2)" d="M 73.832727 181.426687 
L 76.757543 181.697523 
L 79.0324 182.121954 
L 80.982277 182.69861 
L 82.932154 183.516757 
L 84.232072 184.263413 
L 85.53199 185.240011 
L 86.831908 186.527253 
L 88.131826 188.137681 
L 89.431744 190.202041 
L 90.731663 192.777006 
L 92.031581 195.987055 
L 93.331499 199.838056 
L 94.631417 204.37385 
L 95.931335 209.683587 
L 97.556233 217.30047 
L 99.18113 226.173271 
L 106.655659 269.11503 
L 107.955577 274.693288 
L 108.930516 278.066434 
L 110.230434 281.595148 
L 111.205373 283.780829 
L 112.180311 285.535455 
L 112.83027 286.368007 
L 114.130188 287.579506 
L 115.105127 288.141062 
L 116.405045 288.510671 
L 118.029943 288.695422 
L 119.004881 288.829503 
L 120.954758 289.142543 
L 124.204554 289.646652 
L 126.47941 290.153109 
L 131.354103 290.52889 
L 136.228796 290.416113 
L 137.528714 290.576122 
L 139.803571 290.780972 
L 142.403407 290.871572 
L 147.2781 291.12019 
L 148.902998 291.442468 
L 151.502834 291.688443 
L 158.652383 291.767465 
L 170.351646 292.725813 
L 173.276462 292.669747 
L 174.90136 292.619191 
L 175.551319 292.753084 
L 177.501196 293.27054 
L 178.801114 293.32663 
L 180.426011 293.153964 
L 182.375889 292.873114 
L 184.975725 292.882026 
L 186.600622 292.973421 
L 187.575561 293.031472 
L 189.200459 293.304836 
L 190.825356 293.455565 
L 195.05009 293.596694 
L 197.974906 294.043197 
L 200.249762 294.063768 
L 203.499558 293.997092 
L 206.424373 294.109132 
L 209.674169 294.317201 
L 219.098575 294.249423 
L 221.698411 294.483115 
L 224.623227 294.556606 
L 226.248124 294.561219 
L 228.522981 294.366103 
L 238.597346 294.485204 
L 240.872203 294.484464 
L 247.371794 294.419059 
L 248.996691 294.527523 
L 250.296609 294.604487 
L 251.596527 294.642402 
L 253.221425 294.478866 
L 254.196364 294.368274 
L 256.47122 294.54707 
L 258.421097 294.734913 
L 264.270729 294.85675 
L 265.895627 294.866509 
L 272.070238 294.803012 
L 274.670074 294.72067 
L 275.969992 294.765031 
L 278.244848 294.868048 
L 281.169664 294.953013 
L 284.419459 295.09535 
L 288.319214 295.132277 
L 290.59407 295.120434 
L 295.793743 294.823648 
L 297.74362 295.103408 
L 300.018477 295.119742 
L 312.692678 295.258307 
L 314.967535 295.295471 
L 320.817166 295.062398 
L 322.767043 295.025476 
L 324.716921 295.141627 
L 326.991777 295.225449 
L 331.216511 295.353125 
L 336.741163 295.258747 
L 338.69104 295.400479 
L 341.290876 295.371624 
L 342.915774 295.20493 
L 343.890713 295.15152 
L 345.51561 295.193792 
L 349.740344 295.251104 
L 353.315119 295.315251 
L 354.940016 295.244688 
L 356.239934 295.195531 
L 358.514791 295.27728 
L 360.139689 295.327494 
L 362.739525 295.46557 
L 368.914136 295.45476 
L 374.113808 295.449652 
L 380.613399 295.307459 
L 382.238296 295.30797 
L 386.46303 295.345781 
L 391.662703 295.438032 
L 394.912498 295.402648 
L 396.212416 295.345678 
L 398.487273 295.488 
L 398.487273 295.488 
" style="fill:none;stroke:#ff7f0e;stroke-linecap:square;stroke-width:1.5;"/>
   </g>
   <g id="patch_3">
    <path d="M 57.6 307.584 
L 57.6 41.472 
" style="fill:none;stroke:#000000;stroke-linecap:square;stroke-linejoin:miter;stroke-width:0.8;"/>
   </g>
   <g id="patch_4">
    <path d="M 414.72 307.584 
L 414.72 41.472 
" style="fill:none;stroke:#000000;stroke-linecap:square;stroke-linejoin:miter;stroke-width:0.8;"/>
   </g>
   <g id="patch_5">
    <path d="M 57.6 307.584 
L 414.72 307.584 
" style="fill:none;stroke:#000000;stroke-linecap:square;stroke-linejoin:miter;stroke-width:0.8;"/>
   </g>
   <g id="patch_6">
    <path d="M 57.6 41.472 
L 414.72 41.472 
" style="fill:none;stroke:#000000;stroke-linecap:square;stroke-linejoin:miter;stroke-width:0.8;"/>
   </g>
   <g id="text_18">
    <!-- Loss -->
    <defs>
     <path d="M 9.8125 72.90625 
L 19.671875 72.90625 
L 19.671875 8.296875 
L 55.171875 8.296875 
L 55.171875 0 
L 9.8125 0 
z
" id="DejaVuSans-4c"/>
    </defs>
    <g transform="translate(222.895312 35.472)scale(0.12 -0.12)">
     <use xlink:href="#DejaVuSans-4c"/>
     <use x="55.697266" xlink:href="#DejaVuSans-6f"/>
     <use x="116.878906" xlink:href="#DejaVuSans-73"/>
     <use x="168.978516" xlink:href="#DejaVuSans-73"/>
    </g>
   </g>
   <g id="legend_1">
    <g id="patch_7">
     <path d="M 64.6 78.82825 
L 119.875 78.82825 
Q 121.875 78.82825 121.875 76.82825 
L 121.875 48.472 
Q 121.875 46.472 119.875 46.472 
L 64.6 46.472 
Q 62.6 46.472 62.6 48.472 
L 62.6 76.82825 
Q 62.6 78.82825 64.6 78.82825 
z
" style="fill:#ffffff;opacity:0.8;stroke:#cccccc;stroke-linejoin:miter;"/>
    </g>
    <g id="line2d_17">
     <path d="M 66.6 54.570437 
L 86.6 54.570437 
" style="fill:none;stroke:#1f77b4;stroke-linecap:square;stroke-width:1.5;"/>
    </g>
    <g id="line2d_18"/>
    <g id="text_19">
     <!-- train -->
     <defs>
      <path d="M 18.3125 70.21875 
L 18.3125 54.6875 
L 36.8125 54.6875 
L 36.8125 47.703125 
L 18.3125 47.703125 
L 18.3125 18.015625 
Q 18.3125 11.328125 20.140625 9.421875 
Q 21.96875 7.515625 27.59375 7.515625 
L 36.8125 7.515625 
L 36.8125 0 
L 27.59375 0 
Q 17.1875 0 13.234375 3.875 
Q 9.28125 7.765625 9.28125 18.015625 
L 9.28125 47.703125 
L 2.6875 47.703125 
L 2.6875 54.6875 
L 9.28125 54.6875 
L 9.28125 70.21875 
z
" id="DejaVuSans-74"/>
      <path d="M 41.109375 46.296875 
Q 39.59375 47.171875 37.8125 47.578125 
Q 36.03125 48 33.890625 48 
Q 26.265625 48 22.1875 43.046875 
Q 18.109375 38.09375 18.109375 28.8125 
L 18.109375 0 
L 9.078125 0 
L 9.078125 54.6875 
L 18.109375 54.6875 
L 18.109375 46.1875 
Q 20.953125 51.171875 25.484375 53.578125 
Q 30.03125 56 36.53125 56 
Q 37.453125 56 38.578125 55.875 
Q 39.703125 55.765625 41.0625 55.515625 
z
" id="DejaVuSans-72"/>
      <path d="M 34.28125 27.484375 
Q 23.390625 27.484375 19.1875 25 
Q 14.984375 22.515625 14.984375 16.5 
Q 14.984375 11.71875 18.140625 8.90625 
Q 21.296875 6.109375 26.703125 6.109375 
Q 34.1875 6.109375 38.703125 11.40625 
Q 43.21875 16.703125 43.21875 25.484375 
L 43.21875 27.484375 
z
M 52.203125 31.203125 
L 52.203125 0 
L 43.21875 0 
L 43.21875 8.296875 
Q 40.140625 3.328125 35.546875 0.953125 
Q 30.953125 -1.421875 24.3125 -1.421875 
Q 15.921875 -1.421875 10.953125 3.296875 
Q 6 8.015625 6 15.921875 
Q 6 25.140625 12.171875 29.828125 
Q 18.359375 34.515625 30.609375 34.515625 
L 43.21875 34.515625 
L 43.21875 35.40625 
Q 43.21875 41.609375 39.140625 45 
Q 35.0625 48.390625 27.6875 48.390625 
Q 23 48.390625 18.546875 47.265625 
Q 14.109375 46.140625 10.015625 43.890625 
L 10.015625 52.203125 
Q 14.9375 54.109375 19.578125 55.046875 
Q 24.21875 56 28.609375 56 
Q 40.484375 56 46.34375 49.84375 
Q 52.203125 43.703125 52.203125 31.203125 
z
" id="DejaVuSans-61"/>
      <path d="M 9.421875 54.6875 
L 18.40625 54.6875 
L 18.40625 0 
L 9.421875 0 
z
M 9.421875 75.984375 
L 18.40625 75.984375 
L 18.40625 64.59375 
L 9.421875 64.59375 
z
" id="DejaVuSans-69"/>
      <path d="M 54.890625 33.015625 
L 54.890625 0 
L 45.90625 0 
L 45.90625 32.71875 
Q 45.90625 40.484375 42.875 44.328125 
Q 39.84375 48.1875 33.796875 48.1875 
Q 26.515625 48.1875 22.3125 43.546875 
Q 18.109375 38.921875 18.109375 30.90625 
L 18.109375 0 
L 9.078125 0 
L 9.078125 54.6875 
L 18.109375 54.6875 
L 18.109375 46.1875 
Q 21.34375 51.125 25.703125 53.5625 
Q 30.078125 56 35.796875 56 
Q 45.21875 56 50.046875 50.171875 
Q 54.890625 44.34375 54.890625 33.015625 
z
" id="DejaVuSans-6e"/>
     </defs>
     <g transform="translate(94.6 58.070437)scale(0.1 -0.1)">
      <use xlink:href="#DejaVuSans-74"/>
      <use x="39.208984" xlink:href="#DejaVuSans-72"/>
      <use x="80.322266" xlink:href="#DejaVuSans-61"/>
      <use x="141.601562" xlink:href="#DejaVuSans-69"/>
      <use x="169.384766" xlink:href="#DejaVuSans-6e"/>
     </g>
    </g>
    <g id="line2d_19">
     <path d="M 66.6 69.248562 
L 86.6 69.248562 
" style="fill:none;stroke:#ff7f0e;stroke-linecap:square;stroke-width:1.5;"/>
    </g>
    <g id="line2d_20"/>
    <g id="text_20">
     <!-- test -->
     <g transform="translate(94.6 72.748562)scale(0.1 -0.1)">
      <use xlink:href="#DejaVuSans-74"/>
      <use x="39.208984" xlink:href="#DejaVuSans-65"/>
      <use x="100.732422" xlink:href="#DejaVuSans-73"/>
      <use x="152.832031" xlink:href="#DejaVuSans-74"/>
     </g>
    </g>
   </g>
  </g>
 </g>
 <defs>
  <clipPath id="pd9677acfb2">
   <rect height="266.112" width="357.12" x="57.6" y="41.472"/>
  </clipPath>
 </defs>
</svg>
